<?xml version="1.0" standalone="no"?>
<!DOCTYPE svg PUBLIC "-//W3C//DTD SVG 20010904//EN"
 "http://www.w3.org/TR/2001/REC-SVG-20010904/DTD/svg10.dtd">
<svg version="1.0" xmlns="http://www.w3.org/2000/svg"
 width="24.000000pt" height="24.000000pt" viewBox="0 0 24.000000 24.000000"
 preserveAspectRatio="xMidYMid meet">

<g transform="translate(0.000000,24.000000) scale(0.100000,-0.100000)"
fill="#000000" stroke="none">
<path d="M53 194 c-42 -35 -43 -37 -43 -98 0 -35 5 -67 12 -74 16 -16 180 -16
196 0 7 7 12 39 12 74 0 62 -1 63 -44 98 -23 20 -54 36 -67 36 -13 0 -43 -16
-66 -36z m119 -7 c40 -30 43 -37 46 -84 4 -71 -11 -83 -98 -83 -85 0 -100 12
-100 80 0 47 2 51 46 85 26 19 50 35 55 35 4 0 27 -15 51 -33z"/>
<path d="M93 63 c15 -2 39 -2 55 0 15 2 2 4 -28 4 -30 0 -43 -2 -27 -4z"/>
</g>
</svg>
